# xmcd
#
# Track frame offsets:
#	150
#	25012
#	41167
#	56076
#	73418
#	104605
#	138552
#	173003
#	202979
#	231310
#	246868
#	258733
#	283838
#	298524
#	313661
#	330607
#	344446
#
# Disc length: 4745 seconds
#
# Revision: 0
# Processed by: cddbd v1.5.2PL0 Copyright (c) Steve Scherf et al.
# Submitted via: EZCDAudioConverter 7.0.6.1
#
DISCID=15128711
DTITLE=V/A - Lullabies For Catatonics 2/3
DYEAR=1900
DGENRE=
TTITLE0=Mighty Baby - Egyptian Tomb
TTITLE1=Audience - Banquet
TTITLE2=Cressida - To Play Your Little Game
TTITLE3=Pretty Things - Parachute
TTITLE4=Rustic Hinge - Crystallized Petard
TTITLE5=Curved Air - Vivaldi
TTITLE6=Sweet Slag - World Of Ice
TTITLE7=Barclay James Harvest - Mocking Bird
TTITLE8=Comus - The Prisoner
TTITLE9=Nirvana - Home (Reconstruction)
TTITLE10=Second Hand - Death May Be Your Santa Claus
TTITLE11=Spring - The Prisoner (Eight By Ten)
TTITLE12=The Coxhill-Bedford Duo - Don Alfonso
TTITLE13=Stackridge - Grande Piano
TTITLE14=Samurai - Saving It Up For So Long
TTITLE15=Blonde On Blonde - No. 2 Psychological Decontamination Unit
TTITLE16=Fuchsia - Me And My Kite
EXTD=
EXTT0=
EXTT1=
EXTT2=
EXTT3=
EXTT4=
EXTT5=
EXTT6=
EXTT7=
EXTT8=
EXTT9=
EXTT10=
EXTT11=
EXTT12=
EXTT13=
EXTT14=
EXTT15=
EXTT16=
PLAYORDER=
